# xmcd CD database file
#
# Track frame offsets:
#	150
#	34380
#	50517
#	69605
#	91405
#	105595
#	127317
#	148087
#	168395
#	183910
#
# Disc length: 2742 seconds
#
# Revision: 0
# Processed by: cddbd v1.4b41PL1 Copyright (c) Steve Scherf et al.
# Submitted via: Feurio! 1.61 - http://www.feurio.com
#
DISCID=940ab40a
DTITLE=Various Artist - New Orleans Rythm and Southern Soul
DYEAR=1900
DGENRE=
TTITLE0=Solomon Burke - A Change Is Gonna Come
TTITLE1=Bobby King and Terry Evans (feat. Ry Cooder) - Saturday Night
TTITLE2=Neville Brothers - Tell It Like It Is
TTITLE3=The Meters - Good Old Funky Music
TTITLE4=Art Neville - Hey Pockey Way
TTITLE5=Bo Dollis and The Wild Magnolias (feat. Dr John) - Keeper Of The Crown
TTITLE6=Johnny Adams - The Night Is A Hunter
TTITLE7=Ann Peebles - Full Time Lover
TTITLE8=Eddie Hinton - I Remember Justice
TTITLE9=Irma Thomas - I Needed Somebody
EXTD=
EXTT0=
EXTT1=
EXTT2=
EXTT3=
EXTT4=
EXTT5=
EXTT6=
EXTT7=
EXTT8=
EXTT9=
PLAYORDER=
